<svg xmlns="http://www.w3.org/2000/svg" xmlns:xlink="http://www.w3.org/1999/xlink" contentStyleType="text/css" data-diagram-type="CLASS" height="746px" preserveAspectRatio="none" style="width:1433px;height:746px;background:#FFFFFF;" version="1.1" viewBox="0 0 1433 746" width="1433px" zoomAndPan="magnify"><defs/><g><!--class Person--><g class="entity" data-entity="Person" data-source-line="4" data-uid="ent0002" id="entity_Person"><rect fill="#F1F1F1" height="145.7813" rx="2.5" ry="2.5" style="stroke:#181818;stroke-width:0.5;" width="174.5996" x="936.77" y="229.78"/><ellipse cx="996.0478" cy="245.78" fill="#A9DCDF" rx="11" ry="11" style="stroke:#181818;stroke-width:1;"/><path d="M996.1572,241.1238 L995.001,246.2019 L997.3291,246.2019 L996.1572,241.1238 Z M994.6728,238.8894 L997.6572,238.8894 L1001.0166,251.28 L998.5635,251.28 L997.7978,248.2175 L994.5166,248.2175 L993.7666,251.28 L991.3291,251.28 L994.6728,238.8894 Z " fill="#000000"/><text fill="#000000" font-family="sans-serif" font-size="14" font-style="italic" lengthAdjust="spacing" textLength="47.5439" x="1016.5478" y="250.6267">Person</text><line style="stroke:#181818;stroke-width:0.5;" x1="937.77" x2="1110.3696" y1="261.78" y2="261.78"/><text fill="#000000" font-family="sans-serif" font-size="14" lengthAdjust="spacing" textLength="117.0039" x="942.77" y="278.7751">-personId: String</text><text fill="#000000" font-family="sans-serif" font-size="14" lengthAdjust="spacing" textLength="124.6602" x="942.77" y="295.072">-firstName: String</text><text fill="#000000" font-family="sans-serif" font-size="14" lengthAdjust="spacing" textLength="122.5547" x="942.77" y="311.3689">-lastName: String</text><text fill="#000000" font-family="sans-serif" font-size="14" lengthAdjust="spacing" textLength="128.8096" x="942.77" y="327.6657">-dateOfBirth: Date</text><text fill="#000000" font-family="sans-serif" font-size="14" lengthAdjust="spacing" textLength="130.4023" x="942.77" y="343.9626">-nationality: String</text><line style="stroke:#181818;stroke-width:0.5;" x1="937.77" x2="1110.3696" y1="351.2644" y2="351.2644"/><text fill="#000000" font-family="sans-serif" font-size="14" lengthAdjust="spacing" textLength="162.5996" x="942.77" y="368.2595">+getFullName(): String</text></g><!--class Player--><g class="entity" data-entity="Player" data-source-line="13" data-uid="ent0003" id="entity_Player"><rect fill="#F1F1F1" height="162.0781" rx="2.5" ry="2.5" style="stroke:#181818;stroke-width:0.5;" width="175.2695" x="760.43" y="452.57"/><ellipse cx="822.0321" cy="468.57" fill="#ADD1B2" rx="11" ry="11" style="stroke:#181818;stroke-width:1;"/><path d="M825.0008,474.2106 Q824.4227,474.5075 823.7821,474.6481 Q823.1414,474.8044 822.4383,474.8044 Q819.9383,474.8044 818.6102,473.1638 Q817.2977,471.5075 817.2977,468.3825 Q817.2977,465.2575 818.6102,463.6013 Q819.9383,461.945 822.4383,461.945 Q823.1414,461.945 823.7821,462.1013 Q824.4383,462.2575 825.0008,462.5544 L825.0008,465.2731 Q824.3758,464.695 823.7821,464.4294 Q823.1883,464.1481 822.5633,464.1481 Q821.2196,464.1481 820.5321,465.2263 Q819.8446,466.2888 819.8446,468.3825 Q819.8446,470.4763 820.5321,471.5544 Q821.2196,472.6169 822.5633,472.6169 Q823.1883,472.6169 823.7821,472.3513 Q824.3758,472.07 825.0008,471.4919 L825.0008,474.2106 Z " fill="#000000"/><text fill="#000000" font-family="sans-serif" font-size="14" lengthAdjust="spacing" textLength="43.5654" x="842.5321" y="473.4167">Player</text><line style="stroke:#181818;stroke-width:0.5;" x1="761.43" x2="934.6995" y1="484.57" y2="484.57"/><text fill="#000000" font-family="sans-serif" font-size="14" lengthAdjust="spacing" textLength="105.335" x="766.43" y="501.5651">-teamId: String</text><text fill="#000000" font-family="sans-serif" font-size="14" lengthAdjust="spacing" textLength="111.4531" x="766.43" y="517.862">-position: String</text><text fill="#000000" font-family="sans-serif" font-size="14" lengthAdjust="spacing" textLength="163.2695" x="766.43" y="534.1589">-jerseyNumber: Integer</text><text fill="#000000" font-family="sans-serif" font-size="14" lengthAdjust="spacing" textLength="153.542" x="766.43" y="550.4557">-marketValue: Double</text><text fill="#000000" font-family="sans-serif" font-size="14" lengthAdjust="spacing" textLength="99.0186" x="766.43" y="566.7526">-status: String</text><line style="stroke:#181818;stroke-width:0.5;" x1="761.43" x2="934.6995" y1="574.0544" y2="574.0544"/><text fill="#000000" font-family="sans-serif" font-size="14" lengthAdjust="spacing" textLength="94.0352" x="766.43" y="591.0495">+train(): void</text><text fill="#000000" font-family="sans-serif" font-size="14" lengthAdjust="spacing" textLength="133.8066" x="766.43" y="607.3464">+playMatch(): void</text></g><!--class Coach--><g class="entity" data-entity="Coach" data-source-line="23" data-uid="ent0005" id="entity_Coach"><rect fill="#F1F1F1" height="129.4844" rx="2.5" ry="2.5" style="stroke:#181818;stroke-width:0.5;" width="186.8291" x="970.65" y="468.86"/><ellipse cx="1038.0694" cy="484.86" fill="#ADD1B2" rx="11" ry="11" style="stroke:#181818;stroke-width:1;"/><path d="M1041.0382,490.5006 Q1040.4601,490.7975 1039.8194,490.9381 Q1039.1788,491.0944 1038.4757,491.0944 Q1035.9757,491.0944 1034.6476,489.4538 Q1033.3351,487.7975 1033.3351,484.6725 Q1033.3351,481.5475 1034.6476,479.8913 Q1035.9757,478.235 1038.4757,478.235 Q1039.1788,478.235 1039.8194,478.3913 Q1040.4757,478.5475 1041.0382,478.8444 L1041.0382,481.5631 Q1040.4132,480.985 1039.8194,480.7194 Q1039.2257,480.4381 1038.6007,480.4381 Q1037.2569,480.4381 1036.5694,481.5163 Q1035.8819,482.5788 1035.8819,484.6725 Q1035.8819,486.7663 1036.5694,487.8444 Q1037.2569,488.9069 1038.6007,488.9069 Q1039.2257,488.9069 1039.8194,488.6413 Q1040.4132,488.36 1041.0382,487.7819 L1041.0382,490.5006 Z " fill="#000000"/><text fill="#000000" font-family="sans-serif" font-size="14" lengthAdjust="spacing" textLength="43.4902" x="1058.5694" y="489.7067">Coach</text><line style="stroke:#181818;stroke-width:0.5;" x1="971.65" x2="1156.4791" y1="500.86" y2="500.86"/><text fill="#000000" font-family="sans-serif" font-size="14" lengthAdjust="spacing" textLength="105.335" x="976.65" y="517.8551">-teamId: String</text><text fill="#000000" font-family="sans-serif" font-size="14" lengthAdjust="spacing" textLength="82.8242" x="976.65" y="534.152">-role: String</text><text fill="#000000" font-family="sans-serif" font-size="14" lengthAdjust="spacing" textLength="142.0713" x="976.65" y="550.4489">-licenseLevel: String</text><line style="stroke:#181818;stroke-width:0.5;" x1="971.65" x2="1156.4791" y1="557.7506" y2="557.7506"/><text fill="#000000" font-family="sans-serif" font-size="14" lengthAdjust="spacing" textLength="174.8291" x="976.65" y="574.7457">+conductTraining(): void</text><text fill="#000000" font-family="sans-serif" font-size="14" lengthAdjust="spacing" textLength="147.1572" x="976.65" y="591.0426">+selectSquad(): void</text></g><!--class Staff--><g class="entity" data-entity="Staff" data-source-line="31" data-uid="ent0007" id="entity_Staff"><rect fill="#F1F1F1" height="113.1875" rx="2.5" ry="2.5" style="stroke:#181818;stroke-width:0.5;" width="174.5313" x="1192.8" y="477.01"/><ellipse cx="1259.4094" cy="493.01" fill="#ADD1B2" rx="11" ry="11" style="stroke:#181818;stroke-width:1;"/><path d="M1262.3781,498.6506 Q1261.8,498.9475 1261.1594,499.0881 Q1260.5188,499.2444 1259.8156,499.2444 Q1257.3156,499.2444 1255.9875,497.6038 Q1254.675,495.9475 1254.675,492.8225 Q1254.675,489.6975 1255.9875,488.0413 Q1257.3156,486.385 1259.8156,486.385 Q1260.5188,486.385 1261.1594,486.5413 Q1261.8156,486.6975 1262.3781,486.9944 L1262.3781,489.7131 Q1261.7531,489.135 1261.1594,488.8694 Q1260.5656,488.5881 1259.9406,488.5881 Q1258.5969,488.5881 1257.9094,489.6663 Q1257.2219,490.7288 1257.2219,492.8225 Q1257.2219,494.9163 1257.9094,495.9944 Q1258.5969,497.0569 1259.9406,497.0569 Q1260.5656,497.0569 1261.1594,496.7913 Q1261.7531,496.51 1262.3781,495.9319 L1262.3781,498.6506 Z " fill="#000000"/><text fill="#000000" font-family="sans-serif" font-size="14" lengthAdjust="spacing" textLength="32.8125" x="1279.9094" y="497.8567">Staff</text><line style="stroke:#181818;stroke-width:0.5;" x1="1193.8" x2="1366.3313" y1="509.01" y2="509.01"/><text fill="#000000" font-family="sans-serif" font-size="14" lengthAdjust="spacing" textLength="98.3623" x="1198.8" y="526.0051">-clubId: String</text><text fill="#000000" font-family="sans-serif" font-size="14" lengthAdjust="spacing" textLength="82.8242" x="1198.8" y="542.302">-role: String</text><text fill="#000000" font-family="sans-serif" font-size="14" lengthAdjust="spacing" textLength="138.8242" x="1198.8" y="558.5989">-department: String</text><line style="stroke:#181818;stroke-width:0.5;" x1="1193.8" x2="1366.3313" y1="565.9006" y2="565.9006"/><text fill="#000000" font-family="sans-serif" font-size="14" lengthAdjust="spacing" textLength="162.5313" x="1198.8" y="582.8957">+performDuties(): void</text></g><!--class PersonFactory--><g class="entity" data-entity="PersonFactory" data-source-line="39" data-uid="ent0009" id="entity_PersonFactory"><rect fill="#F1F1F1" height="64.2969" rx="2.5" ry="2.5" style="stroke:#181818;stroke-width:0.5;" width="360.1338" x="7" y="501.46"/><ellipse cx="132.8325" cy="517.46" fill="#B4A7E5" rx="11" ry="11" style="stroke:#181818;stroke-width:1;"/><path d="M128.7544,513.2256 L128.7544,511.0694 L136.145,511.0694 L136.145,513.2256 L133.6763,513.2256 L133.6763,521.3038 L136.145,521.3038 L136.145,523.46 L128.7544,523.46 L128.7544,521.3038 L131.2231,521.3038 L131.2231,513.2256 L128.7544,513.2256 Z " fill="#000000"/><text fill="#000000" font-family="sans-serif" font-size="14" font-style="italic" lengthAdjust="spacing" textLength="99.9688" x="153.3325" y="522.3067">PersonFactory</text><line style="stroke:#181818;stroke-width:0.5;" x1="8" x2="366.1338" y1="533.46" y2="533.46"/><line style="stroke:#181818;stroke-width:0.5;" x1="8" x2="366.1338" y1="541.46" y2="541.46"/><text fill="#000000" font-family="sans-serif" font-size="14" font-style="italic" lengthAdjust="spacing" textLength="348.1338" x="13" y="558.4551">+createPerson(type: String, details: Map): Person</text></g><!--class ConcretePersonFactory--><g class="entity" data-entity="ConcretePersonFactory" data-source-line="43" data-uid="ent0010" id="entity_ConcretePersonFactory"><rect fill="#F1F1F1" height="64.2969" rx="2.5" ry="2.5" style="stroke:#181818;stroke-width:0.5;" width="360.1338" x="7" y="675.64"/><ellipse cx="101.1411" cy="691.64" fill="#ADD1B2" rx="11" ry="11" style="stroke:#181818;stroke-width:1;"/><path d="M104.1099,697.2806 Q103.5317,697.5775 102.8911,697.7181 Q102.2505,697.8744 101.5474,697.8744 Q99.0474,697.8744 97.7192,696.2338 Q96.4067,694.5775 96.4067,691.4525 Q96.4067,688.3275 97.7192,686.6713 Q99.0474,685.015 101.5474,685.015 Q102.2505,685.015 102.8911,685.1713 Q103.5474,685.3275 104.1099,685.6244 L104.1099,688.3431 Q103.4849,687.765 102.8911,687.4994 Q102.2974,687.2181 101.6724,687.2181 Q100.3286,687.2181 99.6411,688.2963 Q98.9536,689.3588 98.9536,691.4525 Q98.9536,693.5463 99.6411,694.6244 Q100.3286,695.6869 101.6724,695.6869 Q102.2974,695.6869 102.8911,695.4213 Q103.4849,695.14 104.1099,694.5619 L104.1099,697.2806 Z " fill="#000000"/><text fill="#000000" font-family="sans-serif" font-size="14" lengthAdjust="spacing" textLength="163.3516" x="121.6411" y="696.4867">ConcretePersonFactory</text><line style="stroke:#181818;stroke-width:0.5;" x1="8" x2="366.1338" y1="707.64" y2="707.64"/><line style="stroke:#181818;stroke-width:0.5;" x1="8" x2="366.1338" y1="715.64" y2="715.64"/><text fill="#000000" font-family="sans-serif" font-size="14" lengthAdjust="spacing" textLength="348.1338" x="13" y="732.6351">+createPerson(type: String, details: Map): Person</text></g><!--class Club--><g class="entity" data-entity="Club" data-source-line="48" data-uid="ent0012" id="entity_Club"><rect fill="#F1F1F1" height="145.7813" rx="2.5" ry="2.5" style="stroke:#181818;stroke-width:0.5;" width="389.2686" x="870.43" y="7"/><ellipse cx="1045.1019" cy="23" fill="#ADD1B2" rx="11" ry="11" style="stroke:#181818;stroke-width:1;"/><path d="M1048.0706,28.6406 Q1047.4925,28.9375 1046.8519,29.0781 Q1046.2112,29.2344 1045.5081,29.2344 Q1043.0081,29.2344 1041.68,27.5938 Q1040.3675,25.9375 1040.3675,22.8125 Q1040.3675,19.6875 1041.68,18.0313 Q1043.0081,16.375 1045.5081,16.375 Q1046.2112,16.375 1046.8519,16.5313 Q1047.5081,16.6875 1048.0706,16.9844 L1048.0706,19.7031 Q1047.4456,19.125 1046.8519,18.8594 Q1046.2581,18.5781 1045.6331,18.5781 Q1044.2894,18.5781 1043.6019,19.6563 Q1042.9144,20.7188 1042.9144,22.8125 Q1042.9144,24.9063 1043.6019,25.9844 Q1044.2894,27.0469 1045.6331,27.0469 Q1046.2581,27.0469 1046.8519,26.7813 Q1047.4456,26.5 1048.0706,25.9219 L1048.0706,28.6406 Z " fill="#000000"/><text fill="#000000" font-family="sans-serif" font-size="14" lengthAdjust="spacing" textLength="31.4248" x="1065.6019" y="27.8467">Club</text><line style="stroke:#181818;stroke-width:0.5;" x1="871.43" x2="1258.6986" y1="39" y2="39"/><text fill="#000000" font-family="sans-serif" font-size="14" lengthAdjust="spacing" textLength="98.3623" x="876.43" y="55.9951">-clubId: String</text><text fill="#000000" font-family="sans-serif" font-size="14" lengthAdjust="spacing" textLength="95.7031" x="876.43" y="72.292">-name: String</text><text fill="#000000" font-family="sans-serif" font-size="14" lengthAdjust="spacing" textLength="125.665" x="876.43" y="88.5889">-stadiumId: String</text><text fill="#000000" font-family="sans-serif" font-size="14" lengthAdjust="spacing" textLength="142.9189" x="876.43" y="104.8857">-foundingDate: Date</text><line style="stroke:#181818;stroke-width:0.5;" x1="871.43" x2="1258.6986" y1="112.1875" y2="112.1875"/><text fill="#000000" font-family="sans-serif" font-size="14" lengthAdjust="spacing" textLength="377.2686" x="876.43" y="129.1826">+hireStaff(factory: PersonFactory, details: Map): Staff</text><text fill="#000000" font-family="sans-serif" font-size="14" lengthAdjust="spacing" textLength="268.4473" x="876.43" y="145.4795">+signSponsor(sponsor: Sponsor): void</text></g><!--class Team--><g class="entity" data-entity="Team" data-source-line="57" data-uid="ent0013" id="entity_Team"><rect fill="#F1F1F1" height="129.4844" rx="2.5" ry="2.5" style="stroke:#181818;stroke-width:0.5;" width="428.3086" x="473.91" y="237.93"/><ellipse cx="664.1234" cy="253.93" fill="#ADD1B2" rx="11" ry="11" style="stroke:#181818;stroke-width:1;"/><path d="M667.0921,259.5706 Q666.514,259.8675 665.8734,260.0081 Q665.2328,260.1644 664.5296,260.1644 Q662.0296,260.1644 660.7015,258.5238 Q659.389,256.8675 659.389,253.7425 Q659.389,250.6175 660.7015,248.9613 Q662.0296,247.305 664.5296,247.305 Q665.2328,247.305 665.8734,247.4613 Q666.5296,247.6175 667.0921,247.9144 L667.0921,250.6331 Q666.4671,250.055 665.8734,249.7894 Q665.2796,249.5081 664.6546,249.5081 Q663.3109,249.5081 662.6234,250.5863 Q661.9359,251.6488 661.9359,253.7425 Q661.9359,255.8363 662.6234,256.9144 Q663.3109,257.9769 664.6546,257.9769 Q665.2796,257.9769 665.8734,257.7113 Q666.4671,257.43 667.0921,256.8519 L667.0921,259.5706 Z " fill="#000000"/><text fill="#000000" font-family="sans-serif" font-size="14" lengthAdjust="spacing" textLength="39.3818" x="684.6234" y="258.7767">Team</text><line style="stroke:#181818;stroke-width:0.5;" x1="474.91" x2="901.2186" y1="269.93" y2="269.93"/><text fill="#000000" font-family="sans-serif" font-size="14" lengthAdjust="spacing" textLength="105.335" x="479.91" y="286.9251">-teamId: String</text><text fill="#000000" font-family="sans-serif" font-size="14" lengthAdjust="spacing" textLength="98.3623" x="479.91" y="303.222">-clubId: String</text><text fill="#000000" font-family="sans-serif" font-size="14" lengthAdjust="spacing" textLength="95.7031" x="479.91" y="319.5189">-name: String</text><line style="stroke:#181818;stroke-width:0.5;" x1="474.91" x2="901.2186" y1="326.8206" y2="326.8206"/><text fill="#000000" font-family="sans-serif" font-size="14" lengthAdjust="spacing" textLength="397.9951" x="479.91" y="343.8157">+addPlayer(factory: PersonFactory, details: Map): Player</text><text fill="#000000" font-family="sans-serif" font-size="14" lengthAdjust="spacing" textLength="416.3086" x="479.91" y="360.1126">+assignCoach(factory: PersonFactory, details: Map): Coach</text></g><!--class Match--><g class="entity" data-entity="Match" data-source-line="66" data-uid="ent0014" id="entity_Match"><rect fill="#F1F1F1" height="48" rx="2.5" ry="2.5" style="stroke:#181818;stroke-width:0.5;" width="74.7178" x="650.71" y="509.6"/><ellipse cx="665.71" cy="525.6" fill="#ADD1B2" rx="11" ry="11" style="stroke:#181818;stroke-width:1;"/><path d="M668.6788,531.2406 Q668.1006,531.5375 667.46,531.6781 Q666.8194,531.8344 666.1163,531.8344 Q663.6163,531.8344 662.2881,530.1938 Q660.9756,528.5375 660.9756,525.4125 Q660.9756,522.2875 662.2881,520.6313 Q663.6163,518.975 666.1163,518.975 Q666.8194,518.975 667.46,519.1313 Q668.1163,519.2875 668.6788,519.5844 L668.6788,522.3031 Q668.0538,521.725 667.46,521.4594 Q666.8663,521.1781 666.2413,521.1781 Q664.8975,521.1781 664.21,522.2563 Q663.5225,523.3188 663.5225,525.4125 Q663.5225,527.5063 664.21,528.5844 Q664.8975,529.6469 666.2413,529.6469 Q666.8663,529.6469 667.46,529.3813 Q668.0538,529.1 668.6788,528.5219 L668.6788,531.2406 Z " fill="#000000"/><text fill="#000000" font-family="sans-serif" font-size="14" lengthAdjust="spacing" textLength="42.7178" x="679.71" y="530.4467">Match</text><line style="stroke:#181818;stroke-width:0.5;" x1="651.71" x2="724.4278" y1="541.6" y2="541.6"/><line style="stroke:#181818;stroke-width:0.5;" x1="651.71" x2="724.4278" y1="549.6" y2="549.6"/></g><!--class Season--><g class="entity" data-entity="Season" data-source-line="67" data-uid="ent0015" id="entity_Season"><rect fill="#F1F1F1" height="48" rx="2.5" ry="2.5" style="stroke:#181818;stroke-width:0.5;" width="82.8115" x="646.66" y="683.79"/><ellipse cx="661.66" cy="699.79" fill="#ADD1B2" rx="11" ry="11" style="stroke:#181818;stroke-width:1;"/><path d="M664.6288,705.4306 Q664.0506,705.7275 663.41,705.8681 Q662.7694,706.0244 662.0663,706.0244 Q659.5663,706.0244 658.2381,704.3838 Q656.9256,702.7275 656.9256,699.6025 Q656.9256,696.4775 658.2381,694.8213 Q659.5663,693.165 662.0663,693.165 Q662.7694,693.165 663.41,693.3213 Q664.0663,693.4775 664.6288,693.7744 L664.6288,696.4931 Q664.0038,695.915 663.41,695.6494 Q662.8163,695.3681 662.1913,695.3681 Q660.8475,695.3681 660.16,696.4463 Q659.4725,697.5088 659.4725,699.6025 Q659.4725,701.6963 660.16,702.7744 Q660.8475,703.8369 662.1913,703.8369 Q662.8163,703.8369 663.41,703.5713 Q664.0038,703.29 664.6288,702.7119 L664.6288,705.4306 Z " fill="#000000"/><text fill="#000000" font-family="sans-serif" font-size="14" lengthAdjust="spacing" textLength="50.8115" x="675.66" y="704.6367">Season</text><line style="stroke:#181818;stroke-width:0.5;" x1="647.66" x2="728.4715" y1="715.79" y2="715.79"/><line style="stroke:#181818;stroke-width:0.5;" x1="647.66" x2="728.4715" y1="723.79" y2="723.79"/></g><!--class TrainingSession--><g class="entity" data-entity="TrainingSession" data-source-line="68" data-uid="ent0016" id="entity_TrainingSession"><rect fill="#F1F1F1" height="48" rx="2.5" ry="2.5" style="stroke:#181818;stroke-width:0.5;" width="142.7148" x="472.71" y="509.6"/><ellipse cx="487.71" cy="525.6" fill="#ADD1B2" rx="11" ry="11" style="stroke:#181818;stroke-width:1;"/><path d="M490.6788,531.2406 Q490.1006,531.5375 489.46,531.6781 Q488.8194,531.8344 488.1163,531.8344 Q485.6163,531.8344 484.2881,530.1938 Q482.9756,528.5375 482.9756,525.4125 Q482.9756,522.2875 484.2881,520.6313 Q485.6163,518.975 488.1163,518.975 Q488.8194,518.975 489.46,519.1313 Q490.1163,519.2875 490.6788,519.5844 L490.6788,522.3031 Q490.0538,521.725 489.46,521.4594 Q488.8663,521.1781 488.2413,521.1781 Q486.8975,521.1781 486.21,522.2563 Q485.5225,523.3188 485.5225,525.4125 Q485.5225,527.5063 486.21,528.5844 Q486.8975,529.6469 488.2413,529.6469 Q488.8663,529.6469 489.46,529.3813 Q490.0538,529.1 490.6788,528.5219 L490.6788,531.2406 Z " fill="#000000"/><text fill="#000000" font-family="sans-serif" font-size="14" lengthAdjust="spacing" textLength="110.7148" x="501.71" y="530.4467">TrainingSession</text><line style="stroke:#181818;stroke-width:0.5;" x1="473.71" x2="614.4248" y1="541.6" y2="541.6"/><line style="stroke:#181818;stroke-width:0.5;" x1="473.71" x2="614.4248" y1="549.6" y2="549.6"/></g><!--class Stadium--><g class="entity" data-entity="Stadium" data-source-line="69" data-uid="ent0017" id="entity_Stadium"><rect fill="#F1F1F1" height="48" rx="2.5" ry="2.5" style="stroke:#181818;stroke-width:0.5;" width="90.2422" x="461.95" y="683.79"/><ellipse cx="476.95" cy="699.79" fill="#ADD1B2" rx="11" ry="11" style="stroke:#181818;stroke-width:1;"/><path d="M479.9188,705.4306 Q479.3406,705.7275 478.7,705.8681 Q478.0594,706.0244 477.3563,706.0244 Q474.8563,706.0244 473.5281,704.3838 Q472.2156,702.7275 472.2156,699.6025 Q472.2156,696.4775 473.5281,694.8213 Q474.8563,693.165 477.3563,693.165 Q478.0594,693.165 478.7,693.3213 Q479.3563,693.4775 479.9188,693.7744 L479.9188,696.4931 Q479.2938,695.915 478.7,695.6494 Q478.1063,695.3681 477.4813,695.3681 Q476.1375,695.3681 475.45,696.4463 Q474.7625,697.5088 474.7625,699.6025 Q474.7625,701.6963 475.45,702.7744 Q476.1375,703.8369 477.4813,703.8369 Q478.1063,703.8369 478.7,703.5713 Q479.2938,703.29 479.9188,702.7119 L479.9188,705.4306 Z " fill="#000000"/><text fill="#000000" font-family="sans-serif" font-size="14" lengthAdjust="spacing" textLength="58.2422" x="490.95" y="704.6367">Stadium</text><line style="stroke:#181818;stroke-width:0.5;" x1="462.95" x2="551.1922" y1="715.79" y2="715.79"/><line style="stroke:#181818;stroke-width:0.5;" x1="462.95" x2="551.1922" y1="723.79" y2="723.79"/></g><!--class Sponsor--><g class="entity" data-entity="Sponsor" data-source-line="70" data-uid="ent0018" id="entity_Sponsor"><rect fill="#F1F1F1" height="48" rx="2.5" ry="2.5" style="stroke:#181818;stroke-width:0.5;" width="88.8271" x="1146.65" y="278.67"/><ellipse cx="1161.65" cy="294.67" fill="#ADD1B2" rx="11" ry="11" style="stroke:#181818;stroke-width:1;"/><path d="M1164.6188,300.3106 Q1164.0406,300.6075 1163.4,300.7481 Q1162.7594,300.9044 1162.0563,300.9044 Q1159.5563,300.9044 1158.2281,299.2638 Q1156.9156,297.6075 1156.9156,294.4825 Q1156.9156,291.3575 1158.2281,289.7013 Q1159.5563,288.045 1162.0563,288.045 Q1162.7594,288.045 1163.4,288.2013 Q1164.0563,288.3575 1164.6188,288.6544 L1164.6188,291.3731 Q1163.9938,290.795 1163.4,290.5294 Q1162.8063,290.2481 1162.1813,290.2481 Q1160.8375,290.2481 1160.15,291.3263 Q1159.4625,292.3888 1159.4625,294.4825 Q1159.4625,296.5763 1160.15,297.6544 Q1160.8375,298.7169 1162.1813,298.7169 Q1162.8063,298.7169 1163.4,298.4513 Q1163.9938,298.17 1164.6188,297.5919 L1164.6188,300.3106 Z " fill="#000000"/><text fill="#000000" font-family="sans-serif" font-size="14" lengthAdjust="spacing" textLength="56.8271" x="1175.65" y="299.5167">Sponsor</text><line style="stroke:#181818;stroke-width:0.5;" x1="1147.65" x2="1234.4771" y1="310.67" y2="310.67"/><line style="stroke:#181818;stroke-width:0.5;" x1="1147.65" x2="1234.4771" y1="318.67" y2="318.67"/></g><!--class Contract--><g class="entity" data-entity="Contract" data-source-line="71" data-uid="ent0019" id="entity_Contract"><rect fill="#F1F1F1" height="48" rx="2.5" ry="2.5" style="stroke:#181818;stroke-width:0.5;" width="92.2246" x="1082.95" y="683.79"/><ellipse cx="1097.95" cy="699.79" fill="#ADD1B2" rx="11" ry="11" style="stroke:#181818;stroke-width:1;"/><path d="M1100.9188,705.4306 Q1100.3406,705.7275 1099.7,705.8681 Q1099.0594,706.0244 1098.3563,706.0244 Q1095.8563,706.0244 1094.5281,704.3838 Q1093.2156,702.7275 1093.2156,699.6025 Q1093.2156,696.4775 1094.5281,694.8213 Q1095.8563,693.165 1098.3563,693.165 Q1099.0594,693.165 1099.7,693.3213 Q1100.3563,693.4775 1100.9188,693.7744 L1100.9188,696.4931 Q1100.2938,695.915 1099.7,695.6494 Q1099.1063,695.3681 1098.4813,695.3681 Q1097.1375,695.3681 1096.45,696.4463 Q1095.7625,697.5088 1095.7625,699.6025 Q1095.7625,701.6963 1096.45,702.7744 Q1097.1375,703.8369 1098.4813,703.8369 Q1099.1063,703.8369 1099.7,703.5713 Q1100.2938,703.29 1100.9188,702.7119 L1100.9188,705.4306 Z " fill="#000000"/><text fill="#000000" font-family="sans-serif" font-size="14" lengthAdjust="spacing" textLength="60.2246" x="1111.95" y="704.6367">Contract</text><line style="stroke:#181818;stroke-width:0.5;" x1="1083.95" x2="1174.1746" y1="715.79" y2="715.79"/><line style="stroke:#181818;stroke-width:0.5;" x1="1083.95" x2="1174.1746" y1="723.79" y2="723.79"/></g><!--reverse link Person to Player--><g class="link" data-entity-1="Person" data-entity-2="Player" data-source-line="14" data-uid="lnk4" id="link_Person_Player"><path d="M946.2742,390.3656 C934.6842,405.8956 933.52,407.68 922.07,422.57 C914.58,432.29 906.59,442.37 898.69,452.3" fill="none" id="Person-backto-Player" style="stroke:#181818;stroke-width:1;"/><polygon fill="none" points="957.04,375.94,941.4657,386.777,951.0827,393.9542,957.04,375.94" style="stroke:#181818;stroke-width:1;"/></g><!--reverse link Person to Player--><g class="link" data-entity-1="Person" data-entity-2="Player" data-source-line="76" data-uid="lnk20" id="link_Person_Player"><path codeLine="76" d="M980.9517,390.7446 C970.2117,406.2746 968.52,407.68 957.07,422.57 C949.58,432.29 941.59,442.37 933.44,452.3" fill="none" id="Person-backto-Player-1" style="stroke:#181818;stroke-width:1;"/><polygon fill="none" points="991.19,375.94,976.0168,387.3318,985.8865,394.1574,991.19,375.94" style="stroke:#181818;stroke-width:1;"/></g><!--reverse link Person to Coach--><g class="link" data-entity-1="Person" data-entity-2="Coach" data-source-line="24" data-uid="lnk6" id="link_Person_Coach"><path d="M1027.1337,393.6288 C1031.1437,423.3888 1034.83,439.74 1041.3,468.59" fill="none" id="Person-backto-Coach" style="stroke:#181818;stroke-width:1;"/><polygon fill="none" points="1024.73,375.79,1021.1874,394.43,1033.0799,392.8276,1024.73,375.79" style="stroke:#181818;stroke-width:1;"/></g><!--reverse link Person to Coach--><g class="link" data-entity-1="Person" data-entity-2="Coach" data-source-line="77" data-uid="lnk21" id="link_Person_Coach"><path codeLine="77" d="M1053.1283,393.3803 C1059.5883,423.1403 1061.61,439.74 1065.14,468.59" fill="none" id="Person-backto-Coach-1" style="stroke:#181818;stroke-width:1;"/><polygon fill="none" points="1049.31,375.79,1047.2649,394.6531,1058.9918,392.1076,1049.31,375.79" style="stroke:#181818;stroke-width:1;"/></g><!--reverse link Person to Staff--><g class="link" data-entity-1="Person" data-entity-2="Staff" data-source-line="32" data-uid="lnk8" id="link_Person_Staff"><path d="M1105.9671,388.0308 C1141.1571,420.6708 1170.71,446.41 1206.56,476.82" fill="none" id="Person-backto-Staff" style="stroke:#181818;stroke-width:1;"/><polygon fill="none" points="1092.77,375.79,1101.8868,392.4298,1110.0474,383.6318,1092.77,375.79" style="stroke:#181818;stroke-width:1;"/></g><!--reverse link Person to Staff--><g class="link" data-entity-1="Person" data-entity-2="Staff" data-source-line="78" data-uid="lnk22" id="link_Person_Staff"><path codeLine="78" d="M1125.2254,382.5257 C1164.4754,416.1757 1195.63,444.72 1229.3,476.67" fill="none" id="Person-backto-Staff-1" style="stroke:#181818;stroke-width:1;"/><polygon fill="none" points="1111.56,370.81,1121.3202,387.0808,1129.1306,377.9705,1111.56,370.81" style="stroke:#181818;stroke-width:1;"/></g><!--reverse link PersonFactory to ConcretePersonFactory--><g class="link" data-entity-1="PersonFactory" data-entity-2="ConcretePersonFactory" data-source-line="44" data-uid="lnk11" id="link_PersonFactory_ConcretePersonFactory"><path d="M174.9201,584.0774 C171.4301,615.1374 173.44,644.41 176.96,675.41" fill="none" id="PersonFactory-backto-ConcretePersonFactory" style="stroke:#181818;stroke-width:1;stroke-dasharray:7,7;"/><polygon fill="none" points="176.93,566.19,168.9576,583.4075,180.8826,584.7474,176.93,566.19" style="stroke:#181818;stroke-width:1;"/></g><!--reverse link PersonFactory to ConcretePersonFactory--><g class="link" data-entity-1="PersonFactory" data-entity-2="ConcretePersonFactory" data-source-line="81" data-uid="lnk24" id="link_PersonFactory_ConcretePersonFactory"><path codeLine="81" d="M199.9292,584.0636 C203.6292,615.1236 201.49,644.41 197.77,675.41" fill="none" id="PersonFactory-backto-ConcretePersonFactory-1" style="stroke:#181818;stroke-width:1;stroke-dasharray:7,7;"/><polygon fill="none" points="197.8,566.19,193.9713,584.7734,205.8871,583.3539,197.8,566.19" style="stroke:#181818;stroke-width:1;"/></g><!--link Club to PersonFactory--><g class="link" data-entity-1="Club" data-entity-2="PersonFactory" data-source-line="82" data-uid="lnk25" id="link_Club_PersonFactory"><path codeLine="82" d="M870.07,92.98 C700.74,106.6 470.99,133.57 394.07,182.78 C274.89,259.04 217.0669,424.6605 196.8769,495.3905" fill="none" id="Club-to-PersonFactory" style="stroke:#181818;stroke-width:1;stroke-dasharray:7,7;"/><polygon fill="#181818" points="195.23,501.16,201.5468,493.6036,196.6024,496.352,193.854,491.4077,195.23,501.16" style="stroke:#181818;stroke-width:1;"/><text fill="#000000" font-family="sans-serif" font-size="13" lengthAdjust="spacing" textLength="29.7832" x="336.07" y="307.2369">uses</text></g><!--link Team to PersonFactory--><g class="link" data-entity-1="Team" data-entity-2="PersonFactory" data-source-line="83" data-uid="lnk26" id="link_Team_PersonFactory"><path codeLine="83" d="M589.66,367.85 C558.5,386.78 523.46,406.66 490.07,422.57 C425.01,453.55 354.4542,479.3089 294.7142,499.1489" fill="none" id="Team-to-PersonFactory" style="stroke:#181818;stroke-width:1;stroke-dasharray:7,7;"/><polygon fill="#181818" points="289.02,501.04,298.822,501.9995,293.7652,499.4641,296.3006,494.4073,289.02,501.04" style="stroke:#181818;stroke-width:1;"/><text fill="#000000" font-family="sans-serif" font-size="13" lengthAdjust="spacing" textLength="29.7832" x="520.07" y="418.6369">uses</text></g><!--link Club to Team--><g class="link" data-entity-1="Club" data-entity-2="Team" data-source-line="86" data-uid="lnk27" id="link_Club_Team"><path codeLine="86" d="M941.62,153.19 C895.13,180.41 842.62,211.16 797.49,237.59" fill="none" id="Club-Team" style="stroke:#181818;stroke-width:1;"/><text fill="#000000" font-family="sans-serif" font-size="13" lengthAdjust="spacing" textLength="59.8584" x="889.07" y="195.8469">manages</text><text fill="#000000" font-family="sans-serif" font-size="13" lengthAdjust="spacing" textLength="8.271" x="921.4859" y="172.9644">1</text><text fill="#000000" font-family="sans-serif" font-size="13" lengthAdjust="spacing" textLength="23.0356" x="785.2026" y="226.7255">0..*</text></g><!--link Club to Staff--><g class="link" data-entity-1="Club" data-entity-2="Staff" data-source-line="87" data-uid="lnk28" id="link_Club_Staff"><path codeLine="87" d="M1186.06,152.89 C1212.35,174.3 1237.05,200.11 1253.07,229.78 C1295,307.47 1293.66,412.9 1287.7,476.66" fill="none" id="Club-Staff" style="stroke:#181818;stroke-width:1;"/><text fill="#000000" font-family="sans-serif" font-size="13" lengthAdjust="spacing" textLength="54.9453" x="1290.07" y="307.2369">employs</text><text fill="#000000" font-family="sans-serif" font-size="13" lengthAdjust="spacing" textLength="8.271" x="1189.5901" y="172.8876">1</text><text fill="#000000" font-family="sans-serif" font-size="13" lengthAdjust="spacing" textLength="23.0356" x="1264.231" y="465.8809">0..*</text></g><!--link Club to Stadium--><g class="link" data-entity-1="Club" data-entity-2="Stadium" data-source-line="88" data-uid="lnk29" id="link_Club_Stadium"><path codeLine="88" d="M870.31,106.29 C714.95,130.46 514.08,171.78 456.07,229.78 C335.11,350.73 394.09,454.83 455.07,614.64 C464.5,639.36 479.77,665.42 491.33,683.5" fill="none" id="Club-Stadium" style="stroke:#181818;stroke-width:1;"/><text fill="#000000" font-family="sans-serif" font-size="13" lengthAdjust="spacing" textLength="67.7612" x="391.07" y="418.6369">owns/uses</text><text fill="#000000" font-family="sans-serif" font-size="13" lengthAdjust="spacing" textLength="8.271" x="853.9308" y="104.157">1</text><text fill="#000000" font-family="sans-serif" font-size="13" lengthAdjust="spacing" textLength="8.271" x="478.5511" y="672.8343">1</text></g><!--link Team to Player--><g class="link" data-entity-1="Team" data-entity-2="Player" data-source-line="89" data-uid="lnk30" id="link_Team_Player"><path codeLine="89" d="M732.85,367.75 C751.15,393.94 772.53,424.53 791.87,452.2" fill="none" id="Team-Player" style="stroke:#181818;stroke-width:1;"/><text fill="#000000" font-family="sans-serif" font-size="13" lengthAdjust="spacing" textLength="53.8726" x="769.07" y="418.6369">includes</text><text fill="#000000" font-family="sans-serif" font-size="13" lengthAdjust="spacing" textLength="8.271" x="729.07" y="387.3083">1</text><text fill="#000000" font-family="sans-serif" font-size="13" lengthAdjust="spacing" textLength="23.0356" x="763.054" y="441.632">0..*</text></g><!--link Team to Coach--><g class="link" data-entity-1="Team" data-entity-2="Coach" data-source-line="90" data-uid="lnk31" id="link_Team_Coach"><path codeLine="90" d="M808.81,367.75 C854.66,393.06 906.92,423.1 953.07,452.57 C960.98,457.62 969.09,463.01 977.15,468.53" fill="none" id="Team-Coach" style="stroke:#181818;stroke-width:1;"/><text fill="#000000" font-family="sans-serif" font-size="13" lengthAdjust="spacing" textLength="36.4736" x="905.07" y="418.6369">ledBy</text><text fill="#000000" font-family="sans-serif" font-size="13" lengthAdjust="spacing" textLength="8.271" x="812.8634" y="387.3083">1</text><text fill="#000000" font-family="sans-serif" font-size="13" lengthAdjust="spacing" textLength="8.271" x="959.221" y="457.6666">1</text></g><!--link Club to Sponsor--><g class="link" data-entity-1="Club" data-entity-2="Sponsor" data-source-line="93" data-uid="lnk32" id="link_Club_Sponsor"><path codeLine="93" d="M1106.32,153.19 C1131.01,196.45 1160.78,248.61 1177.66,278.18" fill="none" id="Club-Sponsor" style="stroke:#181818;stroke-width:1;"/><text fill="#000000" font-family="sans-serif" font-size="13" lengthAdjust="spacing" textLength="8.271" x="1101.8839" y="172.9644">1</text><text fill="#000000" font-family="sans-serif" font-size="13" lengthAdjust="spacing" textLength="23.0356" x="1148.5941" y="267.4655">0..*</text></g><!--link Club to Contract--><g class="link" data-entity-1="Club" data-entity-2="Contract" data-source-line="94" data-uid="lnk33" id="link_Club_Contract"><path codeLine="94" d="M1260.03,149.25 C1295.83,169.98 1329.34,196.41 1353.07,229.78 C1411.04,311.3 1377.94,352.79 1385.07,452.57 C1390.2,524.42 1426.49,555.71 1385.07,614.64 C1337.53,682.27 1235.36,700.5 1175.46,705.27" fill="none" id="Club-Contract" style="stroke:#181818;stroke-width:1;"/><text fill="#000000" font-family="sans-serif" font-size="13" lengthAdjust="spacing" textLength="8.271" x="1267.8074" y="148.7359">1</text><text fill="#000000" font-family="sans-serif" font-size="13" lengthAdjust="spacing" textLength="23.0356" x="1183.2424" y="700.9994">0..*</text></g><!--link Player to Contract--><g class="link" data-entity-1="Player" data-entity-2="Contract" data-source-line="95" data-uid="lnk34" id="link_Player_Contract"><path codeLine="95" d="M936.1,603.38 C941.77,607.29 947.46,611.07 953.07,614.64 C995.4,641.59 1046.47,667.67 1082.66,685.17" fill="none" id="Player-Contract" style="stroke:#181818;stroke-width:1;"/><text fill="#000000" font-family="sans-serif" font-size="13" lengthAdjust="spacing" textLength="8.271" x="943.7329" y="605.6092">1</text><text fill="#000000" font-family="sans-serif" font-size="13" lengthAdjust="spacing" textLength="8.271" x="1066.6487" y="677.4471">1</text></g><!--link Coach to Contract--><g class="link" data-entity-1="Coach" data-entity-2="Contract" data-source-line="96" data-uid="lnk35" id="link_Coach_Contract"><path codeLine="96" d="M1088.27,598.72 C1099.46,628.36 1112.06,661.73 1120.25,683.44" fill="none" id="Coach-Contract" style="stroke:#181818;stroke-width:1;"/><text fill="#000000" font-family="sans-serif" font-size="13" lengthAdjust="spacing" textLength="8.271" x="1082.3677" y="618.2825">1</text><text fill="#000000" font-family="sans-serif" font-size="13" lengthAdjust="spacing" textLength="8.271" x="1109.16" y="672.7596">1</text></g><!--link Staff to Contract--><g class="link" data-entity-1="Staff" data-entity-2="Contract" data-source-line="97" data-uid="lnk36" id="link_Staff_Contract"><path codeLine="97" d="M1231.04,590.51 C1203.31,622.13 1170.13,659.97 1149.32,683.7" fill="none" id="Staff-Contract" style="stroke:#181818;stroke-width:1;"/><text fill="#000000" font-family="sans-serif" font-size="13" lengthAdjust="spacing" textLength="8.271" x="1216.594" y="610.4345">1</text><text fill="#000000" font-family="sans-serif" font-size="13" lengthAdjust="spacing" textLength="8.271" x="1145.5208" y="672.689">1</text></g><!--link Team to Match--><g class="link" data-entity-1="Team" data-entity-2="Match" data-source-line="98" data-uid="lnk37" id="link_Team_Match"><path codeLine="98" d="M688.07,367.75 C688.07,414.84 688.07,476.15 688.07,509.13" fill="none" id="Team-Match" style="stroke:#181818;stroke-width:1;"/><text fill="#000000" font-family="sans-serif" font-size="13" lengthAdjust="spacing" textLength="8.271" x="679.6721" y="387.3083">1</text><text fill="#000000" font-family="sans-serif" font-size="13" lengthAdjust="spacing" textLength="23.0356" x="662.2715" y="498.4204">0..*</text></g><!--link Team to TrainingSession--><g class="link" data-entity-1="Team" data-entity-2="TrainingSession" data-source-line="99" data-uid="lnk38" id="link_Team_TrainingSession"><path codeLine="99" d="M647.76,367.75 C618.14,414.84 579.58,476.15 558.83,509.13" fill="none" id="Team-TrainingSession" style="stroke:#181818;stroke-width:1;"/><text fill="#000000" font-family="sans-serif" font-size="13" lengthAdjust="spacing" textLength="8.271" x="635.2051" y="387.3083">1</text><text fill="#000000" font-family="sans-serif" font-size="13" lengthAdjust="spacing" textLength="23.0356" x="536.6296" y="498.4204">0..*</text></g><!--link Match to Season--><g class="link" data-entity-1="Match" data-entity-2="Season" data-source-line="100" data-uid="lnk39" id="link_Match_Season"><path codeLine="100" d="M688.07,557.83 C688.07,590.69 688.07,650.43 688.07,683.39" fill="none" id="Match-Season" style="stroke:#181818;stroke-width:1;"/><text fill="#000000" font-family="sans-serif" font-size="13" lengthAdjust="spacing" textLength="8.271" x="679.1283" y="577.6473">1</text><text fill="#000000" font-family="sans-serif" font-size="13" lengthAdjust="spacing" textLength="8.271" x="679.1291" y="672.6975">1</text></g><!--link Match to Stadium--><g class="link" data-entity-1="Match" data-entity-2="Stadium" data-source-line="101" data-uid="lnk40" id="link_Match_Stadium"><path codeLine="101" d="M674.98,557.87 C664.84,574.72 649.75,597.47 633.07,614.64 C606.92,641.57 572.18,666.33 545.81,683.39" fill="none" id="Match-Stadium" style="stroke:#181818;stroke-width:1;"/><text fill="#000000" font-family="sans-serif" font-size="13" lengthAdjust="spacing" textLength="8.271" x="662.8476" y="577.697">1</text><text fill="#000000" font-family="sans-serif" font-size="13" lengthAdjust="spacing" textLength="8.271" x="546.3106" y="672.6975">1</text></g><!--SRC=[dLLDRzim3BtxLmWvREcwPEtL60QqAGe4MDjXxdQNBTfHAqkUFhfbRV_xACbsOiT5YvqSaO_Y8_cec7ik6wffJGf1ZJcpLlFSMLWNIcRyBv2J97bF5ei5ESkDrRImv1jeeoIXaf6LaeK62oHpUOW7ux49xR31s4Ky9eGiI1CEQvQI37F9AXXBheszfZKCh1XyQ6JKmarvphNTfEG23y4ggULAKi7jTWzzJ2gmbqu8VylygFSy9qdBJD0jQ09_B4Ws8cg1rYEQZJBSvnaOxp08jjUkpa6dP2qjLA23fwRw7knFAXoMSA5SBY9POwbrPi0JsyMbP_YWE0kM1gbTKLjiUclFUgLeiNapQQt4gAsy06dWApo06930cJDNs5lF1Mq3EWO453RxvIWx99HPMfRJX0hXyjS8CK09sXga7T11fPHArnVESZ3xIQCWBr5WIcy9OiXA0mf0Lbtkc_mEsKOnSfo8Bca1hREBUmn97ZkjFfF2Nm8HDBVRfYVv4HbQoWMEx8esI2HYzWSIzs2OWDUD05-LcSpyF-bYvIkbWQomiM49Rt7a29Iq2idGiLl4bfw7lZWEETumb2VZRYoZKZd9yE1Nhb-yOxBX6iBuvsMiBXqMUr1C04T9yKfcZP96wRc9NtJ77mSI2rM-gF7NopecbB6uxczb6j4nrdYoOU_U6Xt0kvdTs0q-DDz1OEDOFwDvvaN2IuushsEiLUCJThGtlF06T7i6r0kXxKYxfXaWkTwQnU5rfzZDdKo3r3jEWGs6cWrlebxGiPP8b5ig2qZQRVhyXE2s6_kcMEA-9GuNR-ca_iEWB9Ff_LYwPldqPTZ696XrkHoPIKeSzYi9AdZHYtdFgaf35QeYxv1WtJtPyUBPwGph9BEJvVB3B6egnMVQxuwPGiI7BIM0KrBR4UHqrdKR4UgtD9zs78VNj7ypAU4IbSh68Fp49pqb0jZvDXHYZ2fu7CyaitQo4wv-p6tQGPhM5VDDUMB9Kvw9mg8u9nnZSGRWe7DHoeVssD5_]--></g></svg>